<?xml version="1.0" encoding="utf-8"?>
<!-- Generator: Adobe Illustrator 27.5.0, SVG Export Plug-In . SVG Version: 6.00 Build 0)  -->
<svg version="1.1" id="Layer_1" xmlns="http://www.w3.org/2000/svg" xmlns:xlink="http://www.w3.org/1999/xlink" x="0px" y="0px"
	 viewBox="0 0 1659.07 1659.07" style="enable-background:new 0 0 1659.07 1659.07;" xml:space="preserve">
<style type="text/css">
	.st0{fill:#349E47;}
	.st1{fill:#7567A1;}
</style>
<g>
	<g>
		<path class="st0" d="M618.35,111.61c34.24,34.24,69.37,67.63,102.44,102.96c30.22,32.27,54.23,68.92,68.25,111.58
			c18.82,57.26,12.19,112.42-12.14,166.32c-16.97,37.6-39.25,72.02-66.41,102.91c-25.55,29.07-51.33,58.21-79.51,84.65
			c-49.41,46.34-102.9,87.33-168.43,109.14c-73.1,24.33-140.94,10.88-202.98-31.89c-26.24-18.09-50.5-39.6-73.37-61.9
			c-61.01-59.5-120.7-120.36-181.18-180.4c-6.37-6.32-6.93-9.99-0.23-16.62c49.99-49.44,99.69-99.18,149.16-149.14
			c6.32-6.38,9.88-5.81,15.9,0.24c59.6,60,119.47,119.72,179.27,179.51c9.72,9.72,9.76,9.71,19.24,0.24
			c53.48-53.46,106.83-107.05,160.55-160.26c6.79-6.72,6.89-10.54,0.04-17.33c-60.28-59.78-120.1-120.02-180.39-179.8
			c-6.89-6.83-6.65-10.66,0.1-17.34c49.51-48.98,98.76-98.24,147.75-147.74c6.62-6.69,10.49-7.18,17.34-0.19
			c34.6,35.27,69.72,70.03,104.66,104.97C618.4,111.56,618.37,111.58,618.35,111.61z"/>
		<path class="st0" d="M1548.81,1038.78c34.94,34.94,69.73,70.03,104.95,104.69c6.59,6.49,7.42,10.4,0.35,17.39
			c-49.77,49.19-99.23,98.7-148.47,148.42c-6.37,6.44-10.04,6.74-16.62,0.11c-59.78-60.28-120.03-120.09-179.79-180.4
			c-6.98-7.04-10.71-7.44-17.91-0.15c-53.14,53.79-106.77,107.11-160.23,160.59c-9.16,9.16-9.18,9.23,0.25,18.66
			c59.55,59.58,119,119.25,178.83,178.54c7.11,7.05,7.32,10.95,0.07,18.11c-49.56,48.93-98.8,98.2-147.76,147.73
			c-6.9,6.98-10.72,6.43-17.34-0.23c-63.79-64.25-128.26-127.81-191.77-192.34c-34.29-34.84-63.85-73.39-80.52-120.18
			c-20.6-57.8-16.49-114.47,8.31-170.25c17.34-38.99,39.99-74.62,68.05-106.51c25.57-29.06,51.4-58.14,79.52-84.65
			c46.61-43.93,97.25-82.64,158.22-105.44c75.42-28.21,145.54-16.13,211.85,27.18c25.65,16.75,48.36,36.8,69.82,58.49
			C1495.23,985.43,1522.07,1012.05,1548.81,1038.78z"/>
	</g>
	<g>
		<path class="st1" d="M111.76,1040.72c34.24-34.24,67.63-69.37,102.96-102.44c32.27-30.22,68.92-54.23,111.58-68.25
			c57.26-18.82,112.42-12.19,166.32,12.14c37.6,16.97,72.02,39.25,102.91,66.41c29.07,25.55,58.21,51.33,84.65,79.51
			c46.34,49.41,87.33,102.9,109.14,168.43c24.33,73.1,10.88,140.94-31.89,202.98c-18.09,26.24-39.6,50.5-61.9,73.37
			c-59.5,61.01-120.36,120.7-180.4,181.18c-6.32,6.37-9.99,6.93-16.62,0.23c-49.44-49.99-99.18-99.69-149.14-149.16
			c-6.38-6.32-5.81-9.88,0.24-15.9c60-59.6,119.72-119.47,179.51-179.27c9.72-9.72,9.71-9.76,0.24-19.24
			c-53.46-53.48-107.05-106.83-160.26-160.55c-6.72-6.79-10.54-6.89-17.33-0.04c-59.78,60.28-120.02,120.1-179.8,180.39
			c-6.83,6.89-10.66,6.65-17.34-0.1c-48.98-49.51-98.24-98.76-147.74-147.75c-6.69-6.62-7.18-10.49-0.19-17.34
			c35.27-34.6,70.03-69.72,104.97-104.66C111.71,1040.67,111.73,1040.7,111.76,1040.72z"/>
		<path class="st1" d="M1038.93,110.26c34.94-34.94,70.03-69.73,104.69-104.95c6.49-6.59,10.4-7.42,17.39-0.35
			c49.19,49.77,98.7,99.23,148.42,148.47c6.44,6.37,6.74,10.04,0.11,16.62c-60.28,59.78-120.09,120.03-180.4,179.79
			c-7.04,6.98-7.44,10.71-0.15,17.91c53.79,53.14,107.11,106.77,160.59,160.23c9.16,9.16,9.23,9.18,18.66-0.25
			c59.58-59.55,119.25-119,178.54-178.83c7.05-7.11,10.95-7.32,18.11-0.07c48.93,49.56,98.2,98.8,147.73,147.76
			c6.98,6.9,6.43,10.72-0.23,17.34c-64.25,63.79-127.81,128.26-192.34,191.77c-34.84,34.29-73.39,63.85-120.18,80.52
			c-57.8,20.6-114.47,16.49-170.25-8.31c-38.99-17.34-74.62-39.99-106.51-68.05c-29.06-25.57-58.14-51.4-84.65-79.52
			c-43.93-46.61-82.64-97.25-105.44-158.22c-28.21-75.42-16.13-145.54,27.18-211.85c16.75-25.65,36.8-48.36,58.49-69.82
			C985.58,163.84,1012.2,137,1038.93,110.26z"/>
	</g>
</g>
</svg>
