<svg xmlns="http://www.w3.org/2000/svg" xmlns:xlink="http://www.w3.org/1999/xlink" width="250" zoomAndPan="magnify" viewBox="0 0 187.5 187.499992" height="250" preserveAspectRatio="xMidYMid meet" version="1.0"><defs><clipPath id="9d8ea6147d"><path d="M 11.417969 59.496094 L 100.328125 59.496094 L 100.328125 135.902344 L 11.417969 135.902344 Z M 11.417969 59.496094 " clip-rule="nonzero"/></clipPath><clipPath id="e009383bc0"><path d="M 100.328125 97.699219 L 78.101562 135.902344 L 33.644531 135.902344 L 11.417969 97.699219 L 33.644531 59.496094 L 78.101562 59.496094 Z M 100.328125 97.699219 " clip-rule="nonzero"/></clipPath><clipPath id="b4cf1c8a56"><path d="M 81.410156 18.699219 L 170.320312 18.699219 L 170.320312 95.105469 L 81.410156 95.105469 Z M 81.410156 18.699219 " clip-rule="nonzero"/></clipPath><clipPath id="1f0eed7a3b"><path d="M 170.320312 56.902344 L 148.09375 95.105469 L 103.636719 95.105469 L 81.410156 56.902344 L 103.636719 18.699219 L 148.09375 18.699219 Z M 170.320312 56.902344 " clip-rule="nonzero"/></clipPath><clipPath id="a11206e1c3"><path d="M 81.410156 97.699219 L 170.320312 97.699219 L 170.320312 174.105469 L 81.410156 174.105469 Z M 81.410156 97.699219 " clip-rule="nonzero"/></clipPath><clipPath id="5aa01cb580"><path d="M 170.320312 135.902344 L 148.09375 174.105469 L 103.636719 174.105469 L 81.410156 135.902344 L 103.636719 97.699219 L 148.09375 97.699219 Z M 170.320312 135.902344 " clip-rule="nonzero"/></clipPath></defs><g clip-path="url(#9d8ea6147d)"><g clip-path="url(#e009383bc0)"><path fill="#38b6ff" d="M 11.417969 59.496094 L 100.328125 59.496094 L 100.328125 135.902344 L 11.417969 135.902344 Z M 11.417969 59.496094 " fill-opacity="1" fill-rule="nonzero"/></g></g><g clip-path="url(#b4cf1c8a56)"><g clip-path="url(#1f0eed7a3b)"><path fill="#38b6ff" d="M 81.410156 18.699219 L 170.320312 18.699219 L 170.320312 95.105469 L 81.410156 95.105469 Z M 81.410156 18.699219 " fill-opacity="1" fill-rule="nonzero"/></g></g><g clip-path="url(#a11206e1c3)"><g clip-path="url(#5aa01cb580)"><path fill="#38b6ff" d="M 81.410156 97.699219 L 170.320312 97.699219 L 170.320312 174.105469 L 81.410156 174.105469 Z M 81.410156 97.699219 " fill-opacity="1" fill-rule="nonzero"/></g></g></svg>