<?xml version="1.0" encoding="utf-8"?>
<!-- Generator: Adobe Illustrator 27.5.0, SVG Export Plug-In . SVG Version: 6.00 Build 0)  -->
<svg version="1.1" id="Layer_1" xmlns="http://www.w3.org/2000/svg" xmlns:xlink="http://www.w3.org/1999/xlink" x="0px" y="0px"
	 viewBox="0 0 1876.14 710.78" style="enable-background:new 0 0 1876.14 710.78;" xml:space="preserve">
<style type="text/css">
	.st0{fill:#5C5C5C;}
	.st1{fill:#349E47;}
	.st2{fill:#7567A1;}
</style>
<g>
	<g>
		<path class="st0" d="M47.67,600.55v11.3c-2.97-1.54-6.88-2.37-11.33-2.37c-13.49,0-23.88,9.48-23.88,26.22v41H1.66v-76h10.25
			v15.06c3.51-8.92,12.82-17.01,25.91-17.01C41.33,598.74,45.24,599.44,47.67,600.55z"/>
		<path class="st0" d="M14.12,678.36H0v-79.33h13.58v10.26c4.61-6.45,12.69-12.21,24.24-12.21c3.81,0,7.95,0.77,10.54,1.97
			l0.97,0.44v15.09l-2.43-1.26c-2.76-1.43-6.42-2.18-10.57-2.18c-13.5,0-22.22,9.64-22.22,24.56V678.36z M3.32,675.03h7.47v-39.34
			c0-16.68,10.27-27.88,25.54-27.88c3.58,0,6.87,0.52,9.67,1.51v-7.65c-2.19-0.78-5.33-1.27-8.19-1.27
			c-13.35,0-21.46,8.6-24.36,15.96l-3.21,8.16v-22.17H3.32V675.03z"/>
	</g>
	<g>
		<path class="st0" d="M109.87,638.76c0-22.59,16.6-40.02,38.86-40.02c22.53,0,38.86,17.43,38.86,40.02
			c0,22.87-16.32,39.88-38.86,39.88C126.47,678.65,109.87,661.63,109.87,638.76z M177.2,638.76c0-17.29-11.87-30.12-28.47-30.12
			c-16.33,0-28.33,12.83-28.33,30.12c0,17.57,12.01,30.26,28.33,30.26C165.33,669.02,177.2,656.33,177.2,638.76z"/>
		<path class="st0" d="M148.73,680.31c-23.1,0-40.52-17.86-40.52-41.55c0-23.76,17.42-41.68,40.52-41.68
			c23.1,0,40.52,17.92,40.52,41.68C189.25,662.83,172.21,680.31,148.73,680.31z M148.73,600.4c-21.21,0-37.2,16.49-37.2,38.36
			c0,21.79,15.99,38.22,37.2,38.22c21.55,0,37.19-16.07,37.19-38.22C185.93,616.89,169.94,600.4,148.73,600.4z M148.73,670.68
			c-17.38,0-30-13.43-30-31.92c0-18.12,12.9-31.78,30-31.78c17.46,0,30.13,13.37,30.13,31.78
			C178.86,657.26,166.19,670.68,148.73,670.68z M148.73,610.3c-15.46,0-26.67,11.97-26.67,28.46c0,16.57,11.22,28.6,26.67,28.6
			c15.53,0,26.81-12.03,26.81-28.6C175.54,622.27,164.27,610.3,148.73,610.3z"/>
	</g>
	<g>
		<path class="st0" d="M338.71,638.34c0,23.01-16.6,40.3-38.86,40.3c-22.53,0-38.32-17.15-38.32-40.86v-69.87h10.39v48.11
			c5.94-10.6,16.46-17.29,29.68-17.29C323.06,598.74,338.71,615.75,338.71,638.34z M328.19,638.76c0-17.43-11.74-30.12-28.06-30.12
			s-28.6,12.83-28.6,30.26c0,17.43,12.01,30.12,28.6,30.12C316.45,669.02,328.19,656.19,328.19,638.76z"/>
		<path class="st0" d="M299.85,680.31c-23.17,0-39.98-17.88-39.98-42.52v-71.53h13.71v44.26c6.68-8.61,16.63-13.44,28.02-13.44
			c22.1,0,38.77,17.74,38.77,41.27C340.37,662.27,322.95,680.31,299.85,680.31z M263.19,569.58v68.21c0,23.08,15.07,39.2,36.66,39.2
			c21.21,0,37.2-16.61,37.2-38.64c0-21.99-14.91-37.94-35.44-37.94c-12.09,0-22.38,5.99-28.23,16.44l-3.11,5.56v-52.82H263.19z
			 M300.12,670.68c-17.54,0-30.27-13.37-30.27-31.78c0-18.2,13.01-31.92,30.27-31.92c17.22,0,29.73,13.37,29.73,31.78
			C329.85,657.26,317.35,670.68,300.12,670.68z M300.12,610.3c-15.36,0-26.94,12.29-26.94,28.6c0,16.49,11.33,28.46,26.94,28.46
			c15.3,0,26.4-12.03,26.4-28.6C326.52,622.27,315.42,610.3,300.12,610.3z"/>
	</g>
	<g>
		<path class="st0" d="M409.95,638.76c0-22.59,16.6-40.02,38.86-40.02c22.53,0,38.86,17.43,38.86,40.02
			c0,22.87-16.32,39.88-38.86,39.88C426.55,678.65,409.95,661.63,409.95,638.76z M477.28,638.76c0-17.29-11.87-30.12-28.47-30.12
			c-16.33,0-28.33,12.83-28.33,30.12c0,17.57,12.01,30.26,28.33,30.26C465.4,669.02,477.28,656.33,477.28,638.76z"/>
		<path class="st0" d="M448.81,680.31c-23.1,0-40.52-17.86-40.52-41.55c0-23.76,17.42-41.68,40.52-41.68
			c23.1,0,40.52,17.92,40.52,41.68C489.33,662.83,472.29,680.31,448.81,680.31z M448.81,600.4c-21.21,0-37.2,16.49-37.2,38.36
			c0,21.79,15.99,38.22,37.2,38.22c21.55,0,37.19-16.07,37.19-38.22C486.01,616.89,470.01,600.4,448.81,600.4z M448.81,670.68
			c-17.38,0-30-13.43-30-31.92c0-18.12,12.9-31.78,30-31.78c17.46,0,30.13,13.37,30.13,31.78
			C478.94,657.26,466.27,670.68,448.81,670.68z M448.81,610.3c-15.46,0-26.67,11.97-26.67,28.46c0,16.57,11.22,28.6,26.67,28.6
			c15.53,0,26.81-12.03,26.81-28.6C475.62,622.27,464.34,610.3,448.81,610.3z"/>
	</g>
	<g>
		<path class="st0" d="M576.72,610.45v43.09c0,9.48,4.99,14.78,13.36,14.78c3.37,0,7.69-0.98,10.25-2.51v10.32
			c-2.56,1.53-7.15,2.51-11.33,2.51c-14.3,0-22.94-9.2-22.94-25.1v-43.09H552.3v-9.76h13.76v-23.01h10.66v23.01h23.61v9.76H576.72z"
			/>
		<path class="st0" d="M589,680.31c-15.4,0-24.6-10.01-24.6-26.76v-41.43h-13.76v-13.09h13.76v-23.01h13.98v23.01h23.61v13.09
			h-23.61v41.43c0,8.46,4.15,13.12,11.7,13.12c3.25,0,7.2-0.96,9.4-2.27l2.52-1.51v14.2l-0.81,0.48
			C598.39,679.23,593.61,680.31,589,680.31z M553.96,608.79h13.76v44.75c0,14.9,7.76,23.44,21.28,23.44c3.5,0,7.3-0.74,9.67-1.85
			v-6.71c-2.57,0.96-5.78,1.57-8.59,1.57c-9.4,0-15.02-6.15-15.02-16.44v-44.75h23.61v-6.44h-23.61v-23.01h-7.34v23.01h-13.76
			V608.79z"/>
	</g>
	<g>
		<path class="st0" d="M672.65,575.31c0-4.74,2.97-7.25,8.1-7.25c5.13,0,8.1,2.51,8.1,7.25c0,4.6-2.97,7.11-8.1,7.11
			C675.62,582.42,672.65,579.91,672.65,575.31z M675.35,600.69h10.79v76h-10.79V600.69z"/>
		<path class="st0" d="M687.81,678.36h-14.12v-79.33h14.12V678.36z M677.01,675.03h7.47v-72.68h-7.47V675.03z M680.75,584.09
			c-6.11,0-9.76-3.28-9.76-8.77c0-5.58,3.65-8.91,9.76-8.91c6.11,0,9.76,3.33,9.76,8.91C690.51,580.81,686.86,584.09,680.75,584.09z
			 M680.75,569.72c-4.27,0-6.43,1.88-6.43,5.59c0,3.62,2.16,5.45,6.43,5.45s6.43-1.83,6.43-5.45
			C687.18,571.6,685.02,569.72,680.75,569.72z"/>
	</g>
	<g>
		<path class="st0" d="M765.21,638.76c0-22.73,16.87-40.02,40.48-40.02c6.34,0,12.95,1.54,17.54,4.18l-0.14,9.9
			c-3.91-2.09-9.85-4.04-16.86-4.04c-17.81,0-30.63,12.55-30.63,29.98c0,17.57,12.68,29.98,30.63,29.98
			c7.02,0,12.95-1.81,16.86-4.04l0.14,9.9c-4.59,2.51-11.2,4.04-17.54,4.04C782.08,678.65,765.21,661.49,765.21,638.76z"/>
		<path class="st0" d="M805.69,680.31c-24.42,0-42.14-17.47-42.14-41.55c0-23.76,18.12-41.68,42.14-41.68
			c6.72,0,13.59,1.65,18.37,4.41l0.84,0.49l-0.19,13.61l-2.41-1.29c-2.69-1.44-8.35-3.85-16.08-3.85
			c-16.78,0-28.97,11.91-28.97,28.32c0,16.68,11.91,28.32,28.97,28.32c5.93,0,11.78-1.39,16.04-3.83l2.45-1.4l0.19,13.72l-0.88,0.48
			C819.16,678.72,812.31,680.31,805.69,680.31z M805.69,600.4c-22.49,0-38.82,16.13-38.82,38.36c0,22.15,16.32,38.22,38.82,38.22
			c5.6,0,11.57-1.29,15.86-3.39l-0.09-6.23c-4.4,1.94-9.8,3.03-15.24,3.03c-19.01,0-32.29-13.01-32.29-31.64
			c0-18.34,13.58-31.64,32.29-31.64c6.6,0,11.85,1.62,15.24,3.08l0.09-6.3C817.31,601.7,811.46,600.4,805.69,600.4z"/>
	</g>
	<g>
		<path class="st0" d="M1010.65,610.45v43.09c0,9.48,4.99,14.78,13.36,14.78c3.37,0,7.69-0.98,10.25-2.51v10.32
			c-2.57,1.53-7.15,2.51-11.33,2.51c-14.3,0-22.94-9.2-22.94-25.1v-43.09h-13.76v-9.76h13.76v-23.01h10.66v23.01h23.61v9.76H1010.65
			z"/>
		<path class="st0" d="M1022.92,680.31c-15.4,0-24.6-10.01-24.6-26.76v-41.43h-13.76v-13.09h13.76v-23.01h13.98v23.01h23.61v13.09
			h-23.61v41.43c0,8.46,4.15,13.12,11.7,13.12c3.24,0,7.2-0.96,9.4-2.28l2.52-1.5v14.19l-0.81,0.48
			C1032.32,679.23,1027.53,680.31,1022.92,680.31z M987.89,608.79h13.76v44.75c0,14.9,7.75,23.44,21.27,23.44
			c3.5,0,7.3-0.74,9.67-1.85v-6.71c-2.58,0.96-5.78,1.57-8.59,1.57c-9.4,0-15.02-6.15-15.02-16.44v-44.75h23.61v-6.44h-23.61v-23.01
			h-7.33v23.01h-13.76V608.79z"/>
	</g>
	<g>
		<path class="st0" d="M1176.33,632.9v43.79h-10.79v-41.42c0-16.87-8.5-27.05-22.53-27.05c-14.3,0-25.23,11.44-25.23,29.56v38.91
			h-10.79V567.92h10.25v49.23c3.51-9.9,13.63-18.41,27.66-18.41C1164.05,598.74,1176.33,611.71,1176.33,632.9z"/>
		<path class="st0" d="M1177.99,678.36h-14.12v-43.08c0-15.9-7.8-25.39-20.87-25.39c-13.88,0-23.57,11.47-23.57,27.9v40.57h-14.12
			v-112.1h13.58v44.06c4.99-7.25,13.95-13.24,26-13.24c20.11,0,33.1,14.06,33.1,35.83V678.36z M1167.2,675.03h7.47V632.9
			c0-20.05-11.41-32.5-29.78-32.5c-13.79,0-23.04,8.69-26.09,17.3l-3.23,9.11v-57.23h-6.93v105.45h7.47v-37.25
			c0-18.39,11.06-31.23,26.89-31.23c14.92,0,24.19,11,24.19,28.72V675.03z"/>
	</g>
	<g>
		<path class="st0" d="M1322.46,641.69h-59.77c1.35,17.15,12.68,27.05,31.3,27.05c10.52,0,19.16-2.65,25.37-6.41l0.13,10.04
			c-7.29,4.46-16.73,6.28-26.18,6.28c-25.1,0-41.02-15.9-41.02-40.3c0-22.73,16.06-39.61,36.7-39.61c20.1,0,34,15.06,34,37.09
			C1323,638.06,1322.73,640.16,1322.46,641.69z M1262.96,632.9h49.79c-0.67-14.5-9.17-24.68-24.02-24.68
			C1275.24,608.22,1264.85,617.84,1262.96,632.9z"/>
		<path class="st0" d="M1293.32,680.31c-25.93,0-42.68-16.47-42.68-41.96c0-23.53,16.49-41.27,38.36-41.27
			c21,0,35.66,15.94,35.66,38.76c0,2.43-0.31,4.68-0.56,6.14l-0.24,1.37h-59.33c1.9,15.32,12.3,23.73,29.47,23.73
			c11.84,0,19.86-3.36,24.5-6.17l2.48-1.51l0.19,13.89l-0.81,0.49C1311.56,679.18,1300.8,680.31,1293.32,680.31z M1289,600.4
			c-19.97,0-35.04,16.31-35.04,37.94c0,23.47,15.45,38.64,39.35,38.64c9.7,0,18.14-1.92,24.5-5.55l-0.08-6.3
			c-5.18,2.65-13.02,5.27-23.74,5.27c-19.52,0-31.53-10.42-32.96-28.59l-0.14-1.79h60.15c0.16-1.2,0.3-2.66,0.3-4.2
			C1321.34,614.64,1308.34,600.4,1289,600.4z M1314.49,634.57h-53.41l0.24-1.87c1.96-15.63,12.98-26.14,27.42-26.14
			c15.09,0,24.92,10.07,25.68,26.27L1314.49,634.57z M1264.89,631.24h46.08c-1.24-13.41-9.45-21.36-22.24-21.36
			C1276.42,609.88,1267.23,618.2,1264.89,631.24z"/>
	</g>
	<g>
		<path class="st0" d="M1445.24,600.55v11.3c-2.97-1.54-6.88-2.37-11.33-2.37c-13.49,0-23.88,9.48-23.88,26.22v41h-10.79v-76h10.25
			v15.06c3.51-8.92,12.82-17.01,25.91-17.01C1438.9,598.74,1442.81,599.44,1445.24,600.55z"/>
		<path class="st0" d="M1411.69,678.36h-14.12v-79.33h13.58v10.26c4.61-6.45,12.69-12.21,24.24-12.21c3.81,0,7.95,0.77,10.55,1.97
			l0.97,0.44v15.09l-2.42-1.25c-2.77-1.43-6.42-2.19-10.57-2.19c-13.5,0-22.22,9.64-22.22,24.56V678.36z M1400.9,675.03h7.47v-39.34
			c0-16.68,10.26-27.88,25.54-27.88c3.58,0,6.87,0.52,9.67,1.51v-7.65c-2.2-0.78-5.33-1.27-8.19-1.27
			c-13.35,0-21.46,8.6-24.36,15.96l-3.21,8.16v-22.17h-6.93V675.03z"/>
	</g>
	<g>
		<path class="st0" d="M1586.1,667.07v9.2c-2.29,1.53-5.53,2.37-8.91,2.37c-7.69,0-13.9-5.44-13.9-15.06v-7.53
			c-1.35,4.32-3.64,8.37-6.75,11.71c-5.94,6.41-14.84,10.88-25.5,10.88c-13.09,0-22.4-8.37-22.4-20.22c0-6,1.75-10.18,4.99-13.39
			c5.8-6,15.79-8.23,25.37-10.18c8.91-1.81,17.54-3.21,21.59-7.39c1.62-1.67,2.43-3.77,2.43-6.28c0-7.39-5.67-12.69-20.1-12.69
			c-11.33,0-23.07,4.32-30.76,9.07v-10.74c7.02-3.9,18.75-8.09,30.76-8.09c21.05,0,29.95,8.79,29.95,23.29v39.19
			c0,5.72,3.38,7.67,6.88,7.67C1582.33,668.88,1584.49,668.18,1586.1,667.07z M1563.57,634.58v-0.14l-0.81,0.84
			c-3.78,3.91-11.33,5.44-19.02,6.97c-8.23,1.54-16.73,3.07-21.05,7.67c-2.02,1.95-3.1,4.46-3.1,7.81c0,6.97,5.94,11.71,14.03,11.71
			c7.42,0,14.84-3.21,20.37-9.07C1559.79,654.38,1563.57,645.59,1563.57,634.58z"/>
		<path class="st0" d="M1577.2,680.31c-9.11,0-15.48-6.8-15.56-16.55c-1.12,1.85-2.41,3.58-3.86,5.14
			c-6.81,7.36-16.3,11.41-26.72,11.41c-13.94,0-24.06-9.2-24.06-21.88c0-6.15,1.79-10.91,5.49-14.57
			c5.89-6.09,15.35-8.42,26.2-10.63l2.41-0.49c7.71-1.54,15-3,18.32-6.43c1.32-1.36,1.96-3.04,1.96-5.12
			c0-9.11-10.03-11.03-18.44-11.03c-11.49,0-22.98,4.56-29.89,8.82l-2.54,1.56v-14.69l0.85-0.48c7.21-4.01,19.29-8.3,31.57-8.3
			c14.42,0,31.61,4.33,31.61,24.95v39.19c0,4.97,2.84,6.01,5.22,6.01c2.09,0,3.95-0.53,5.4-1.52l2.6-1.79v13.25l-0.74,0.49
			C1584.51,679.34,1580.93,680.31,1577.2,680.31z M1564.96,645.15v18.43c0,8.02,4.92,13.4,12.24,13.4c2.72,0,5.31-0.59,7.24-1.65
			v-5.57c-1.43,0.51-3.01,0.78-4.68,0.78c-4.13,0-8.54-2.45-8.54-9.33v-39.19c0-14.55-9.25-21.63-28.29-21.63
			c-11.18,0-22.18,3.75-29.1,7.41v6.87c7.4-4.02,18.23-7.85,29.1-7.85c18.94,0,21.76,8.99,21.76,14.35c0,2.95-0.98,5.44-2.9,7.43
			c-4.04,4.18-11.82,5.74-20.05,7.38l-2.4,0.48c-10.3,2.1-19.25,4.27-24.5,9.71c-3.09,3.06-4.52,6.94-4.52,12.23
			c0,10.93,8.53,18.56,20.73,18.56c9.48,0,18.11-3.67,24.28-10.35c2.88-3.11,5.08-6.94,6.38-11.08L1564.96,645.15z M1533.62,671.1
			c-9.09,0-15.7-5.62-15.7-13.38c0-3.71,1.18-6.66,3.61-9.01c4.57-4.88,13.21-6.49,21.56-8.04l0.34-0.06
			c7.21-1.44,14.69-2.93,18.13-6.49l3.67-3.78v4.24c0,10.84-3.47,20.16-10.05,26.95C1549.45,667.61,1541.58,671.1,1533.62,671.1z
			 M1561.76,638.25c-4.44,2.99-11.16,4.33-17.7,5.63l-0.36,0.07c-7.82,1.46-15.91,2.97-19.8,7.11c-1.83,1.77-2.65,3.87-2.65,6.67
			c0,5.92,5.09,10.05,12.37,10.05c7.05,0,14.04-3.11,19.16-8.54C1558.01,653.83,1561.08,646.63,1561.76,638.25z"/>
	</g>
	<g>
		<path class="st0" d="M1873.64,600.69l-35.76,84.79c-6.48,15.62-16.46,21.34-26.18,21.34c-4.72,0-9.17-1.26-11.2-2.79v-9.9
			c2.03,1.53,5.67,2.65,9.98,2.65c7.42,0,13.9-3.91,18.48-14.92l0.68-1.81l-32.52-79.35h11.47l26.45,66.38l26.98-66.38H1873.64z"/>
		<path class="st0" d="M1811.7,708.48c-4.82,0-9.73-1.26-12.2-3.13l-0.66-0.5v-14.07l2.66,2.02c1.48,1.12,4.61,2.31,8.98,2.31
			c7.62,0,13-4.42,16.95-13.9l0.43-1.14l-33.21-81.04h15.07l25.33,63.59l25.85-63.59h15.23l-36.73,87.1
			C1831.35,705.57,1818.59,708.48,1811.7,708.48z M1802.17,703.13c1.9,1.07,5.5,2.03,9.54,2.03c7.4,0,17.68-3.52,24.64-20.31
			l34.79-82.49h-7.98l-28.12,69.17l-27.56-69.17h-7.86l31.82,77.66l-0.9,2.42c-4.49,10.79-11.04,16-20.04,16
			c-3.07,0-5.99-0.54-8.32-1.5V703.13z"/>
	</g>
	<g>
		<path class="st0" d="M1697.42,678.3c-13.22,0-23.75-6.69-29.68-17.29v48.11h-10.39v-69.87c0-23.71,15.79-40.86,38.32-40.86
			c22.26,0,38.86,17.29,38.86,40.3C1734.53,661.28,1718.87,678.3,1697.42,678.3z M1695.94,608.01c-16.6,0-28.6,12.69-28.6,30.12
			c0,17.43,12.28,30.26,28.6,30.26c16.33,0,28.06-12.69,28.06-30.12C1724,620.84,1712.26,608.01,1695.94,608.01z"/>
		<path class="st0" d="M1669.4,710.78h-13.71v-71.53c0-24.64,16.81-42.52,39.98-42.52c23.1,0,40.52,18.04,40.52,41.96
			c0,23.53-16.67,41.27-38.77,41.27c-11.39,0-21.34-4.83-28.02-13.44V710.78z M1659.01,707.46h7.07v-52.82l3.11,5.56
			c5.85,10.45,16.14,16.44,28.23,16.44c20.54,0,35.44-15.96,35.44-37.94c0-22.03-15.99-38.64-37.2-38.64
			c-21.58,0-36.66,16.12-36.66,39.2V707.46z M1695.94,670.06c-17.25,0-30.27-13.72-30.27-31.92c0-18.42,12.73-31.78,30.27-31.78
			c17.23,0,29.73,13.43,29.73,31.92C1725.66,656.69,1713.16,670.06,1695.94,670.06z M1695.94,609.67
			c-15.61,0-26.94,11.97-26.94,28.46c0,16.3,11.58,28.6,26.94,28.6c15.3,0,26.4-11.97,26.4-28.46
			C1722.34,621.7,1711.23,609.67,1695.94,609.67z"/>
	</g>
</g>
<g>
	<g>
		<path class="st1" d="M168.21,15.52c4.76,4.76,9.65,9.41,14.25,14.32c4.2,4.49,7.54,9.59,9.49,15.52
			c2.62,7.96,1.7,15.64-1.69,23.13c-2.36,5.23-5.46,10.02-9.24,14.31c-3.55,4.04-7.14,8.1-11.06,11.77
			c-6.87,6.45-14.31,12.15-23.43,15.18c-10.17,3.38-19.6,1.51-28.23-4.44c-3.65-2.52-7.02-5.51-10.21-8.61
			c-8.49-8.28-16.79-16.74-25.2-25.09c-0.89-0.88-0.96-1.39-0.03-2.31c6.95-6.88,13.87-13.79,20.75-20.74
			c0.88-0.89,1.37-0.81,2.21,0.03c8.29,8.34,16.62,16.65,24.94,24.97c1.35,1.35,1.36,1.35,2.68,0.03
			c7.44-7.44,14.86-14.89,22.33-22.29c0.94-0.94,0.96-1.47,0.01-2.41c-8.38-8.31-16.7-16.69-25.09-25.01
			c-0.96-0.95-0.93-1.48,0.01-2.41c6.89-6.81,13.74-13.66,20.55-20.55c0.92-0.93,1.46-1,2.41-0.03c4.81,4.91,9.7,9.74,14.56,14.6
			C168.22,15.52,168.21,15.52,168.21,15.52z"/>
		<path class="st1" d="M297.63,144.49c4.86,4.86,9.7,9.74,14.6,14.56c0.92,0.9,1.03,1.45,0.05,2.42
			c-6.92,6.84-13.8,13.73-20.65,20.64c-0.89,0.9-1.4,0.94-2.31,0.02c-8.32-8.38-16.7-16.7-25.01-25.09
			c-0.97-0.98-1.49-1.04-2.49-0.02c-7.39,7.48-14.85,14.9-22.29,22.34c-1.27,1.27-1.28,1.28,0.04,2.6
			c8.28,8.29,16.55,16.59,24.87,24.83c0.99,0.98,1.02,1.52,0.01,2.52c-6.89,6.81-13.74,13.66-20.55,20.55
			c-0.96,0.97-1.49,0.89-2.41-0.03c-8.87-8.94-17.84-17.78-26.67-26.75c-4.77-4.85-8.88-10.21-11.2-16.72
			c-2.86-8.04-2.29-15.92,1.16-23.68c2.41-5.42,5.56-10.38,9.47-14.82c3.56-4.04,7.15-8.09,11.06-11.77
			c6.48-6.11,13.53-11.49,22.01-14.67c10.49-3.92,20.24-2.24,29.47,3.78c3.57,2.33,6.73,5.12,9.71,8.14
			C290.18,137.07,293.91,140.77,297.63,144.49z"/>
	</g>
	<g>
		<path class="st2" d="M97.75,144.76c4.76-4.76,9.41-9.65,14.32-14.25c4.49-4.2,9.59-7.54,15.52-9.49
			c7.96-2.62,15.64-1.7,23.13,1.69c5.23,2.36,10.02,5.46,14.31,9.24c4.04,3.55,8.1,7.14,11.77,11.06
			c6.45,6.87,12.15,14.31,15.18,23.43c3.38,10.17,1.51,19.6-4.44,28.23c-2.52,3.65-5.51,7.02-8.61,10.21
			c-8.28,8.49-16.74,16.79-25.09,25.2c-0.88,0.89-1.39,0.96-2.31,0.03c-6.88-6.95-13.79-13.87-20.74-20.75
			c-0.89-0.88-0.81-1.37,0.03-2.21c8.34-8.29,16.65-16.62,24.97-24.94c1.35-1.35,1.35-1.36,0.03-2.68
			c-7.44-7.44-14.89-14.86-22.29-22.33c-0.94-0.94-1.47-0.96-2.41-0.01c-8.31,8.38-16.69,16.7-25.01,25.09
			c-0.95,0.96-1.48,0.93-2.41-0.01c-6.81-6.89-13.66-13.74-20.55-20.55c-0.93-0.92-1-1.46-0.03-2.41c4.91-4.81,9.74-9.7,14.6-14.56
			C97.74,144.75,97.74,144.75,97.75,144.76z"/>
		<path class="st2" d="M226.71,15.34c4.86-4.86,9.74-9.7,14.56-14.6c0.9-0.92,1.45-1.03,2.42-0.05c6.84,6.92,13.73,13.8,20.64,20.65
			c0.9,0.89,0.94,1.4,0.02,2.31c-8.38,8.32-16.7,16.7-25.09,25.01c-0.98,0.97-1.04,1.49-0.02,2.49c7.48,7.39,14.9,14.85,22.34,22.29
			c1.27,1.27,1.28,1.28,2.6-0.04c8.29-8.28,16.59-16.55,24.83-24.87c0.98-0.99,1.52-1.02,2.52-0.01
			c6.81,6.89,13.66,13.74,20.55,20.55c0.97,0.96,0.89,1.49-0.03,2.41c-8.94,8.87-17.78,17.84-26.75,26.67
			c-4.85,4.77-10.21,8.88-16.72,11.2c-8.04,2.86-15.92,2.29-23.68-1.16c-5.42-2.41-10.38-5.56-14.81-9.47
			c-4.04-3.56-8.09-7.15-11.77-11.06c-6.11-6.48-11.49-13.53-14.67-22.01c-3.92-10.49-2.24-20.24,3.78-29.47
			c2.33-3.57,5.12-6.73,8.14-9.71C219.29,22.79,222.99,19.06,226.71,15.34z"/>
	</g>
</g>
<path class="st1" d="M22.77,454.8c-10.46-10.58-15.69-25.47-15.69-44.66V191.16h35.87v215.99c0,10.71,2.55,18.94,7.66,24.66
	c5.1,5.73,12.76,8.59,22.98,8.59c6.22,0,12.08-1.24,17.56-3.74l1.87,29.52c-8.22,2.99-16.82,4.48-25.78,4.48
	C48.05,470.68,33.23,465.39,22.77,454.8z"/>
<path class="st1" d="M180.47,270.39h35.87v198.06h-35.87V270.39z"/>
<path class="st1" d="M513.42,270.39l-86.7,198.06H390.1l-86.7-198.06h37.37l68.01,158.82l69.51-158.82H513.42z"/>
<path class="st1" d="M741.37,415.38l19.43,23.17c-8.72,10.46-19.75,18.44-33.07,23.92c-13.33,5.48-28.21,8.22-44.66,8.22
	c-20.93,0-39.49-4.3-55.68-12.89c-16.2-8.59-28.72-20.61-37.56-36.06c-8.85-15.44-13.27-32.88-13.27-52.32
	c0-19.18,4.3-36.49,12.89-51.94c8.59-15.44,20.42-27.47,35.5-36.06c15.07-8.59,32.07-12.89,51.01-12.89
	c17.94,0,34.25,4.05,48.95,12.14c14.7,8.1,26.4,19.5,35.13,34.19c8.72,14.7,13.2,31.64,13.45,50.82l-157.32,30.64
	c4.98,13.7,13.39,24.29,25.22,31.76c11.83,7.47,26.09,11.21,42.79,11.21C707.86,439.3,726.92,431.33,741.37,415.38z M642.53,307.38
	c-9.84,5.73-17.51,13.77-22.98,24.1c-5.48,10.34-8.22,22.36-8.22,36.06v3.74l126.68-23.92c-3.24-14.45-10.46-26.16-21.67-35.13
	c-11.21-8.97-24.66-13.45-40.36-13.45C663.51,298.79,652.37,301.65,642.53,307.38z"/>
<path class="st2" d="M1187.93,267.4v110.99c0,29.65-8.1,52.57-24.29,68.76c-16.2,16.2-39.24,24.29-69.13,24.29
	c-14.45,0-27.22-2.24-38.3-6.73c-11.09-4.48-20.37-11.71-27.84-21.67c-7.48,9.97-16.69,17.19-27.65,21.67
	c-10.97,4.48-23.92,6.73-38.86,6.73c-30.15,0-53.19-8.09-69.13-24.29c-15.95-16.19-23.92-39.11-23.92-68.76V267.4h58.3v106.5
	c0,16.69,2.86,28.96,8.6,36.81c5.73,7.85,14.7,11.77,26.9,11.77c12.46,0,21.67-3.98,27.65-11.96c5.98-7.97,8.97-20.18,8.97-36.62
	V267.4h58.3v106.5c0,16.44,2.99,28.65,8.97,36.62c5.98,7.98,15.19,11.96,27.65,11.96c12.2,0,21.17-3.92,26.91-11.77
	c5.73-7.85,8.59-20.12,8.59-36.81V267.4H1187.93z"/>
<path class="st2" d="M1422.79,420.05c8.09-3.11,15.63-8.04,22.61-14.76l31.02,33.63c-18.93,21.67-46.59,32.51-82.96,32.51
	c-22.67,0-42.73-4.42-60.16-13.27c-17.44-8.84-30.89-21.11-40.36-36.81c-9.47-15.69-14.2-33.5-14.2-53.44
	c0-19.68,4.67-37.43,14.01-53.25c9.34-15.82,22.17-28.15,38.49-37c16.31-8.84,34.69-13.27,55.12-13.27
	c19.18,0,36.62,4.05,52.32,12.14c15.69,8.1,28.21,19.81,37.56,35.13c9.34,15.32,14.01,33.45,14.01,54.37l-148.73,28.78
	c4.23,9.97,10.9,17.44,19.99,22.42c9.09,4.99,20.24,7.47,33.45,7.47C1405.42,424.72,1414.7,423.17,1422.79,420.05z M1350.48,322.7
	c-9.22,9.47-14.08,22.55-14.57,39.24l97.91-19.06c-2.74-10.46-8.35-18.81-16.82-25.04c-8.47-6.22-18.68-9.34-30.64-9.34
	C1371.66,308.5,1359.7,313.24,1350.48,322.7z"/>
<path class="st2" d="M1601.98,453.31c-12.71-12.08-19.06-29.21-19.06-51.38V191.16h58.3v207.4c0,8.47,2.18,15.01,6.54,19.62
	c4.36,4.61,10.52,6.91,18.5,6.91c2.99,0,6.04-0.37,9.15-1.12c3.11-0.75,5.54-1.62,7.29-2.62l2.62,45.22
	c-9.72,3.24-19.81,4.86-30.27,4.86C1632.37,471.43,1614.68,465.39,1601.98,453.31z"/>
<path class="st2" d="M1786.58,453.31c-12.71-12.08-19.06-29.21-19.06-51.38V191.16h58.3v207.4c0,8.47,2.18,15.01,6.54,19.62
	c4.36,4.61,10.52,6.91,18.5,6.91c2.99,0,6.04-0.37,9.15-1.12c3.11-0.75,5.54-1.62,7.29-2.62l2.62,45.22
	c-9.72,3.24-19.81,4.86-30.27,4.86C1816.97,471.43,1799.28,465.39,1786.58,453.31z"/>
</svg>
